<?xml version="1.0" standalone="no"?>
<!DOCTYPE svg PUBLIC "-//W3C//DTD SVG 20010904//EN"
 "http://www.w3.org/TR/2001/REC-SVG-20010904/DTD/svg10.dtd">
<svg version="1.0" xmlns="http://www.w3.org/2000/svg"
 width="500.000000pt" height="500.000000pt" viewBox="0 0 500.000000 500.000000"
 preserveAspectRatio="xMidYMid meet">
<metadata>
Created by potrace 1.14, written by Peter Selinger 2001-2017
</metadata>
<g transform="translate(0.000000,500.000000) scale(0.100000,-0.100000)"
fill="#000000" stroke="none">
<path d="M3395 4350 c-22 -11 -50 -35 -62 -53 l-23 -33 0 -603 c0 -396 -4
-609 -10 -622 -10 -18 -25 -19 -358 -19 -316 0 -351 -2 -388 -19 -101 -46 -98
-201 6 -253 31 -16 69 -18 338 -18 258 0 303 -2 308 -15 3 -8 -24 -72 -61
-142 -152 -287 -355 -580 -575 -828 -81 -91 -94 -118 -94 -185 1 -100 52 -160
136 -160 27 0 58 5 69 10 24 13 180 201 274 330 90 124 217 322 280 438 28 50
56 92 62 92 10 0 13 -125 15 -557 3 -540 4 -559 23 -584 79 -105 222 -98 284
12 20 36 21 50 21 588 0 339 4 551 9 551 6 0 35 -46 67 -102 124 -225 283
-461 434 -648 104 -128 113 -135 165 -134 88 2 155 78 155 176 0 69 -16 100
-111 213 -172 205 -305 388 -424 585 -84 138 -184 333 -178 348 4 9 74 12 306
12 288 0 304 1 336 21 46 28 69 57 77 97 10 52 -11 107 -53 139 l-36 28 -361
3 c-323 2 -362 4 -373 19 -10 13 -13 152 -13 616 0 592 0 600 -21 637 -42 75
-141 101 -224 60z"/>
<path d="M643 4234 c-74 -37 -99 -143 -49 -208 50 -66 49 -66 508 -66 373 0
416 2 448 18 75 37 104 138 60 210 -37 61 -45 62 -512 62 -367 0 -427 -3 -455
-16z"/>
<path d="M1823 4179 c-43 -27 -67 -81 -60 -135 4 -35 32 -86 144 -256 77 -117
161 -248 187 -291 62 -99 92 -121 167 -122 43 0 65 5 86 21 42 31 65 77 65
130 0 54 -24 96 -241 426 -153 232 -169 248 -262 248 -37 0 -64 -7 -86 -21z"/>
<path d="M2603 4164 c-18 -9 -42 -31 -53 -49 -37 -60 -28 -98 68 -303 49 -103
122 -263 163 -356 79 -180 106 -218 169 -237 98 -29 190 39 190 142 0 51 -293
713 -338 762 -47 53 -138 71 -199 41z"/>
<path d="M4183 4160 c-39 -24 -40 -25 -123 -234 -74 -186 -92 -228 -181 -418
-63 -136 -70 -172 -41 -227 26 -53 64 -75 125 -75 92 0 117 25 202 199 132
270 250 569 249 631 -1 50 -35 109 -74 129 -41 21 -118 19 -157 -5z"/>
<path d="M612 3630 c-94 -23 -142 -142 -89 -221 47 -70 36 -69 582 -69 458 0
493 1 525 19 37 20 80 88 80 129 0 38 -30 91 -68 120 l-35 27 -481 2 c-265 1
-496 -2 -514 -7z"/>
<path d="M725 2994 c-11 -3 -29 -7 -41 -9 -30 -7 -72 -52 -83 -91 -13 -47 2
-102 38 -138 l31 -31 420 -3 c465 -3 461 -3 500 61 39 63 17 152 -47 194 -25
16 -60 18 -413 20 -212 1 -394 -1 -405 -3z"/>
<path d="M1760 2722 c-19 -9 -45 -33 -58 -52 -48 -70 -13 -179 68 -212 14 -6
84 -14 155 -17 l130 -6 0 -626 0 -626 -45 -58 c-25 -32 -93 -110 -152 -172
-136 -143 -155 -186 -127 -285 20 -75 97 -125 163 -107 38 10 198 174 295 301
36 49 71 88 76 88 6 0 39 -32 74 -70 246 -275 545 -336 1613 -328 423 3 437 4
464 24 91 68 96 185 11 248 -28 21 -42 21 -635 27 -654 6 -720 11 -910 65
-230 65 -365 182 -461 402 l-31 70 0 569 c0 350 -4 582 -10 604 -14 52 -85
128 -145 155 -47 22 -61 24 -245 24 -166 0 -200 -3 -230 -18z"/>
<path d="M710 2371 c-19 -4 -45 -13 -57 -19 -54 -29 -72 -134 -34 -194 40 -65
26 -63 471 -66 371 -2 408 -1 440 15 99 51 107 189 13 250 -25 16 -60 18 -413
20 -212 1 -401 -2 -420 -6z"/>
<path d="M750 1741 c-76 -24 -132 -72 -164 -141 -20 -44 -21 -58 -21 -550 0
-459 2 -508 17 -537 52 -93 205 -99 263 -9 9 14 19 45 22 68 3 24 11 46 17 50
6 4 135 8 286 8 255 0 278 2 320 21 60 27 98 64 126 124 24 50 24 52 24 414 0
409 0 407 -76 484 -73 72 -70 72 -449 74 -187 1 -351 -2 -365 -6z m600 -290
c14 -26 14 -496 0 -522 -10 -18 -24 -19 -239 -19 -199 0 -230 2 -235 16 -3 9
-6 129 -6 268 0 183 3 255 12 264 9 9 75 12 235 12 210 0 223 -1 233 -19z"/>
</g>
</svg>
